<svg width="279" height="31" viewBox="0 0 279 31" fill="none" xmlns="http://www.w3.org/2000/svg">
<path d="M0.76001 30V9.27999C0.76001 7.86665 1.08001 6.61332 1.72001 5.51999C2.36001 4.42665 3.22668 3.57332 4.32001 2.95999C5.41334 2.31999 6.65334 1.99999 8.04001 1.99999H18V5.39999H8.48001C7.30668 5.39999 6.36001 5.77332 5.64001 6.51999C4.94668 7.23999 4.60001 8.15999 4.60001 9.27999V14.96H16.52V18.36H4.60001V30H0.76001Z" fill="#141414"/>
<path d="M30.025 30.48C28.0517 30.48 26.345 30.0133 24.905 29.08C23.465 28.12 22.3583 26.8267 21.585 25.2C20.8117 23.5733 20.425 21.7733 20.425 19.8C20.425 17.8 20.8517 16 21.705 14.4C22.5583 12.7733 23.785 11.4933 25.385 10.56C26.985 9.59999 28.905 9.11999 31.145 9.11999C33.305 9.11999 35.1583 9.58665 36.705 10.52C38.2517 11.4533 39.4383 12.72 40.265 14.32C41.1183 15.92 41.545 17.7067 41.545 19.68V30H37.825V25.84H37.745C37.345 26.6133 36.7983 27.36 36.105 28.08C35.4383 28.7733 34.5983 29.3467 33.585 29.8C32.5717 30.2533 31.385 30.48 30.025 30.48ZM30.985 27.32C32.3183 27.32 33.4917 27 34.505 26.36C35.545 25.6933 36.345 24.7867 36.905 23.64C37.4917 22.4667 37.785 21.16 37.785 19.72C37.785 18.3067 37.505 17.04 36.945 15.92C36.4117 14.8 35.6383 13.92 34.625 13.28C33.6117 12.6133 32.425 12.28 31.065 12.28C29.625 12.28 28.385 12.6133 27.345 13.28C26.3317 13.9467 25.545 14.8533 24.985 16C24.4517 17.12 24.185 18.4 24.185 19.84C24.185 21.2267 24.4517 22.4933 24.985 23.64C25.5183 24.76 26.2917 25.6533 27.305 26.32C28.3183 26.9867 29.545 27.32 30.985 27.32ZM29.545 6.91999L33.225 1.99999H36.785L33.105 6.91999H29.545Z" fill="#141414"/>
<path d="M57.3728 30.48C55.3995 30.48 53.6262 30.0533 52.0528 29.2C50.4795 28.3467 49.2262 27.12 48.2928 25.52C47.3862 23.8933 46.9328 21.9467 46.9328 19.68V0.799988H50.6128V13.24H50.6928C51.1462 12.4133 51.7328 11.6933 52.4528 11.08C53.1995 10.4667 54.0395 9.98665 54.9728 9.63999C55.9328 9.29332 56.9328 9.11999 57.9728 9.11999C59.8662 9.11999 61.5595 9.54665 63.0528 10.4C64.5462 11.2533 65.7195 12.4667 66.5728 14.04C67.4528 15.5867 67.8928 17.4267 67.8928 19.56C67.8928 21.24 67.6262 22.76 67.0928 24.12C66.5862 25.4533 65.8662 26.6 64.9328 27.56C63.9995 28.52 62.8928 29.2533 61.6128 29.76C60.3328 30.24 58.9195 30.48 57.3728 30.48ZM57.3728 27.32C58.6262 27.32 59.7595 27.0133 60.7728 26.4C61.8128 25.7867 62.6395 24.92 63.2528 23.8C63.8662 22.68 64.1728 21.3467 64.1728 19.8C64.1728 18.3067 63.8662 17 63.2528 15.88C62.6662 14.76 61.8662 13.88 60.8528 13.24C59.8395 12.6 58.6928 12.28 57.4128 12.28C56.1595 12.28 55.0128 12.5867 53.9728 13.2C52.9595 13.8133 52.1462 14.6933 51.5328 15.84C50.9462 16.96 50.6528 18.2933 50.6528 19.84C50.6528 21.36 50.9462 22.68 51.5328 23.8C52.1462 24.92 52.9595 25.7867 53.9728 26.4C55.0128 27.0133 56.1462 27.32 57.3728 27.32Z" fill="#141414"/>
<path d="M72.5997 30V9.59999H76.3197V30H72.5997ZM74.4797 6.35999C73.813 6.35999 73.2264 6.11999 72.7197 5.63999C72.2397 5.13332 71.9997 4.54665 71.9997 3.87999C71.9997 3.21332 72.2397 2.63999 72.7197 2.15999C73.2264 1.65332 73.813 1.39999 74.4797 1.39999C75.1464 1.39999 75.7197 1.65332 76.1997 2.15999C76.7064 2.63999 76.9597 3.21332 76.9597 3.87999C76.9597 4.54665 76.7064 5.13332 76.1997 5.63999C75.7197 6.11999 75.1464 6.35999 74.4797 6.35999Z" fill="#141414"/>
<path d="M91.7309 30.48C89.6509 30.48 87.8109 30.0133 86.2109 29.08C84.6109 28.12 83.3443 26.84 82.4109 25.24C81.4776 23.6133 81.0109 21.8 81.0109 19.8C81.0109 17.8 81.4776 16 82.4109 14.4C83.3443 12.7733 84.6109 11.4933 86.2109 10.56C87.8109 9.59999 89.6509 9.11999 91.7309 9.11999C93.811 9.11999 95.6509 9.59999 97.2509 10.56C98.8776 11.4933 100.144 12.76 101.051 14.36C101.984 15.96 102.451 17.7733 102.451 19.8C102.451 21.8 101.984 23.6133 101.051 25.24C100.144 26.84 98.8776 28.12 97.2509 29.08C95.6509 30.0133 93.811 30.48 91.7309 30.48ZM91.7309 27.32C93.1443 27.32 94.3709 26.9867 95.4109 26.32C96.451 25.6533 97.2643 24.76 97.8509 23.64C98.4376 22.4933 98.7309 21.2133 98.7309 19.8C98.7309 18.3867 98.4376 17.12 97.8509 16C97.2643 14.8533 96.451 13.9467 95.4109 13.28C94.3709 12.6133 93.1443 12.28 91.7309 12.28C90.3443 12.28 89.1176 12.6133 88.0509 13.28C87.0109 13.9467 86.1976 14.8533 85.6109 16C85.0243 17.12 84.7309 18.3867 84.7309 19.8C84.7309 21.2133 85.0243 22.4933 85.6109 23.64C86.1976 24.76 87.0109 25.6533 88.0509 26.32C89.1176 26.9867 90.3443 27.32 91.7309 27.32Z" fill="#141414"/>
<path d="M113.705 30L123.225 4.67999C123.652 3.58665 124.238 2.78665 124.985 2.27999C125.732 1.77332 126.598 1.51999 127.585 1.51999C128.572 1.51999 129.438 1.77332 130.185 2.27999C130.958 2.75999 131.545 3.54665 131.945 4.63999L141.505 30H137.305L134.865 23.24H120.225L117.745 30H113.705ZM121.425 19.84H133.705L128.705 5.95999C128.572 5.61332 128.425 5.34665 128.265 5.15999C128.105 4.97332 127.878 4.87999 127.585 4.87999C127.318 4.87999 127.105 4.97332 126.945 5.15999C126.785 5.34665 126.652 5.61332 126.545 5.95999L121.425 19.84Z" fill="#141414"/>
<path d="M147.514 30C146.66 30 145.9 29.8 145.234 29.4C144.567 29 144.034 28.4667 143.634 27.8C143.26 27.1067 143.074 26.36 143.074 25.56C143.074 24.7067 143.274 23.96 143.674 23.32C144.1 22.6533 144.714 22.0533 145.514 21.52L154.914 15.56C155.314 15.32 155.567 15.08 155.674 14.84C155.807 14.6 155.874 14.3467 155.874 14.08C155.874 13.76 155.74 13.4667 155.474 13.2C155.207 12.9067 154.86 12.76 154.434 12.76H144.074V9.59999H155.554C156.38 9.59999 157.114 9.79999 157.754 10.2C158.42 10.6 158.94 11.1467 159.314 11.84C159.714 12.5067 159.914 13.24 159.914 14.04C159.914 14.8667 159.7 15.6267 159.274 16.32C158.874 16.9867 158.287 17.5733 157.514 18.08L148.114 24.04C147.714 24.28 147.447 24.52 147.314 24.76C147.207 25 147.154 25.2533 147.154 25.52C147.154 25.84 147.287 26.1467 147.554 26.44C147.82 26.7067 148.18 26.84 148.634 26.84H159.554V30H147.514Z" fill="#141414"/>
<path d="M175.303 30C173.063 30 171.077 29.5867 169.343 28.76C167.61 27.9067 166.25 26.72 165.263 25.2C164.303 23.6533 163.823 21.8533 163.823 19.8C163.823 17.7733 164.237 15.96 165.063 14.36C165.89 12.7333 167.037 11.4533 168.503 10.52C169.97 9.58665 171.677 9.11999 173.623 9.11999C175.73 9.11999 177.477 9.57332 178.863 10.48C180.277 11.3867 181.33 12.6133 182.023 14.16C182.717 15.68 183.063 17.3867 183.063 19.28C183.063 19.5733 183.05 19.88 183.023 20.2C183.023 20.52 182.997 20.8 182.943 21.04H167.743C167.877 22.2933 168.29 23.36 168.983 24.24C169.677 25.0933 170.557 25.7467 171.623 26.2C172.717 26.6267 173.917 26.84 175.223 26.84H180.543V30H175.303ZM167.703 18.44H179.343C179.343 17.9333 179.29 17.4 179.183 16.84C179.077 16.2533 178.89 15.6933 178.623 15.16C178.357 14.6 177.997 14.1067 177.543 13.68C177.117 13.2267 176.57 12.8667 175.903 12.6C175.263 12.3333 174.503 12.2 173.623 12.2C172.69 12.2 171.863 12.3867 171.143 12.76C170.45 13.1067 169.85 13.5867 169.343 14.2C168.837 14.7867 168.45 15.4533 168.183 16.2C167.917 16.9467 167.757 17.6933 167.703 18.44Z" fill="#141414"/>
<path d="M195.965 30.48C195.059 30.48 194.232 30.2267 193.485 29.72C192.765 29.1867 192.232 28.44 191.885 27.48L185.245 9.59999H189.285L195.205 26.12C195.312 26.3867 195.432 26.5733 195.565 26.68C195.699 26.7867 195.845 26.84 196.005 26.84C196.192 26.84 196.339 26.7867 196.445 26.68C196.579 26.5733 196.699 26.3867 196.805 26.12L202.765 9.59999H206.725L200.085 27.48C199.712 28.44 199.165 29.1867 198.445 29.72C197.725 30.2267 196.899 30.48 195.965 30.48Z" fill="#141414"/>
<path d="M220.03 30C217.79 30 215.803 29.5867 214.07 28.76C212.337 27.9067 210.977 26.72 209.99 25.2C209.03 23.6533 208.55 21.8533 208.55 19.8C208.55 17.7733 208.963 15.96 209.79 14.36C210.617 12.7333 211.763 11.4533 213.23 10.52C214.697 9.58665 216.403 9.11999 218.35 9.11999C220.457 9.11999 222.203 9.57332 223.59 10.48C225.003 11.3867 226.057 12.6133 226.75 14.16C227.443 15.68 227.79 17.3867 227.79 19.28C227.79 19.5733 227.777 19.88 227.75 20.2C227.75 20.52 227.723 20.8 227.67 21.04H212.47C212.603 22.2933 213.017 23.36 213.71 24.24C214.403 25.0933 215.283 25.7467 216.35 26.2C217.443 26.6267 218.643 26.84 219.95 26.84H225.27V30H220.03ZM212.43 18.44H224.07C224.07 17.9333 224.017 17.4 223.91 16.84C223.803 16.2533 223.617 15.6933 223.35 15.16C223.083 14.6 222.723 14.1067 222.27 13.68C221.843 13.2267 221.297 12.8667 220.63 12.6C219.99 12.3333 219.23 12.2 218.35 12.2C217.417 12.2 216.59 12.3867 215.87 12.76C215.177 13.1067 214.577 13.5867 214.07 14.2C213.563 14.7867 213.177 15.4533 212.91 16.2C212.643 16.9467 212.483 17.6933 212.43 18.44Z" fill="#141414"/>
<path d="M241.883 30.48C240.336 30.48 238.923 30.24 237.643 29.76C236.363 29.2533 235.256 28.52 234.323 27.56C233.389 26.6 232.656 25.4533 232.123 24.12C231.616 22.76 231.363 21.24 231.363 19.56C231.363 17.4267 231.789 15.5867 232.643 14.04C233.523 12.4667 234.709 11.2533 236.203 10.4C237.723 9.54665 239.416 9.11999 241.283 9.11999C242.323 9.11999 243.309 9.29332 244.243 9.63999C245.203 9.98665 246.056 10.4667 246.803 11.08C247.549 11.6933 248.136 12.4133 248.563 13.24H248.643V0.799988H252.323V19.68C252.323 21.9467 251.856 23.8933 250.923 25.52C250.016 27.12 248.776 28.3467 247.203 29.2C245.656 30.0533 243.883 30.48 241.883 30.48ZM241.883 27.32C243.136 27.32 244.269 27.0133 245.283 26.4C246.296 25.7867 247.096 24.92 247.683 23.8C248.296 22.68 248.603 21.36 248.603 19.84C248.603 18.2933 248.296 16.96 247.683 15.84C247.096 14.6933 246.296 13.8133 245.283 13.2C244.269 12.5867 243.123 12.28 241.843 12.28C240.589 12.28 239.443 12.6 238.403 13.24C237.389 13.88 236.576 14.76 235.963 15.88C235.376 17 235.083 18.3067 235.083 19.8C235.083 21.3467 235.389 22.68 236.003 23.8C236.616 24.92 237.429 25.7867 238.443 26.4C239.482 27.0133 240.629 27.32 241.883 27.32Z" fill="#141414"/>
<path d="M267.629 30.48C265.549 30.48 263.709 30.0133 262.109 29.08C260.509 28.12 259.243 26.84 258.309 25.24C257.376 23.6133 256.909 21.8 256.909 19.8C256.909 17.8 257.376 16 258.309 14.4C259.243 12.7733 260.509 11.4933 262.109 10.56C263.709 9.59999 265.549 9.11999 267.629 9.11999C269.709 9.11999 271.549 9.59999 273.149 10.56C274.776 11.4933 276.043 12.76 276.949 14.36C277.883 15.96 278.349 17.7733 278.349 19.8C278.349 21.8 277.883 23.6133 276.949 25.24C276.043 26.84 274.776 28.12 273.149 29.08C271.549 30.0133 269.709 30.48 267.629 30.48ZM267.629 27.32C269.043 27.32 270.269 26.9867 271.309 26.32C272.349 25.6533 273.163 24.76 273.749 23.64C274.336 22.4933 274.629 21.2133 274.629 19.8C274.629 18.3867 274.336 17.12 273.749 16C273.163 14.8533 272.349 13.9467 271.309 13.28C270.269 12.6133 269.043 12.28 267.629 12.28C266.243 12.28 265.016 12.6133 263.949 13.28C262.909 13.9467 262.096 14.8533 261.509 16C260.923 17.12 260.629 18.3867 260.629 19.8C260.629 21.2133 260.923 22.4933 261.509 23.64C262.096 24.76 262.909 25.6533 263.949 26.32C265.016 26.9867 266.243 27.32 267.629 27.32Z" fill="#141414"/>
</svg>
